<svg width="110" height="28" fill="none" xmlns="http://www.w3.org/2000/svg"><g clip-path="url('#clip0_4313_360')"><path d="m0 2 12.257 12.129L24 26V2H0Z" fill="#F6F6F6"/><path d="m3.343 5.171 8.957 8.872 8.443 8.614h-17.4V5.171Z" fill="#F6F6F6"/><path d="m20.8 22.714-8.958-8.872L3.4 5.228h17.4v17.486Z" fill="#4F2EE8"/><path d="M6.943 8.771 11.7 13.53l5.443 5.442h-10.2v-10.2Z" fill="#4F2EE8"/><path d="M6.943 8.771 11.7 13.53l5.443 5.442v-10.2h-10.2Z" fill="#F6F6F6"/></g><path d="M41.702 10.733c0-2.07-1.53-3.24-4.176-3.24H32v12.87h5.832c2.664 0 4.374-1.278 4.374-3.762 0-1.926-1.152-2.916-2.502-3.15v-.036c1.062-.36 1.998-1.098 1.998-2.682Zm-7.56 2.088v-3.51h3.438c1.278 0 1.98.63 1.98 1.764s-.576 1.746-2.106 1.746h-3.312Zm0 1.602h3.762c1.35 0 2.16.738 2.16 2.052 0 1.206-.558 2.07-2.394 2.07h-3.528v-4.122ZM47.702 20.633c-2.88 0-4.626-1.998-4.626-4.86s1.746-4.86 4.626-4.86c2.88 0 4.626 1.998 4.626 4.86s-1.746 4.86-4.626 4.86Zm0-1.548c1.8 0 2.736-1.422 2.736-3.312 0-1.908-.936-3.312-2.736-3.312-1.8 0-2.736 1.404-2.736 3.312 0 1.89.936 3.312 2.736 3.312ZM57.774 20.633c-2.88 0-4.626-1.998-4.626-4.86s1.746-4.86 4.626-4.86c2.88 0 4.626 1.998 4.626 4.86s-1.746 4.86-4.626 4.86Zm0-1.548c1.8 0 2.736-1.422 2.736-3.312 0-1.908-.936-3.312-2.736-3.312-1.8 0-2.736 1.404-2.736 3.312 0 1.89.936 3.312 2.736 3.312ZM63.706 7.493v12.87h1.89v-3.33l1.278-1.206 2.898 4.536h2.268l-3.87-5.778 3.492-3.42H69.34l-3.744 3.69V7.493h-1.89ZM76.596 14.801c-1.332-.306-2.358-.378-2.358-1.314 0-.648.612-1.08 1.746-1.08 1.476 0 1.836.738 1.962 1.458h1.836c-.126-1.602-1.314-2.952-3.816-2.952-2.304 0-3.636 1.206-3.636 2.718 0 2.088 1.98 2.376 3.438 2.718 1.35.324 2.448.414 2.448 1.566 0 .576-.558 1.224-1.872 1.224-1.944 0-2.376-.846-2.466-1.836h-1.836c.09 1.944 1.368 3.33 4.338 3.33 2.232 0 3.744-1.098 3.744-2.862 0-2.196-1.836-2.574-3.528-2.97ZM86.304 10.913c-1.548 0-2.502.72-2.988 1.44h-.036v-4.86h-1.89v12.87h1.89v-5.598c0-1.368.99-2.25 2.376-2.25 1.314 0 1.836.792 1.836 2.034v5.814H89.4v-6.354c0-2.106-1.35-3.096-3.096-3.096ZM95.196 19.085c-1.674 0-2.664-1.278-2.664-2.826h7.056c0-3.276-1.458-5.346-4.428-5.346-2.772 0-4.518 1.872-4.518 4.86 0 2.88 1.746 4.86 4.608 4.86 2.358 0 3.726-1.332 4.194-3.078h-1.89c-.162.558-.792 1.53-2.358 1.53Zm-.036-6.678c1.53 0 2.538 1.026 2.538 2.448h-5.166c0-1.422 1.098-2.448 2.628-2.448ZM100.92 7.493v12.87h1.908V7.493h-1.908ZM109.001 9.041V7.493a6.63 6.63 0 0 0-1.26-.126c-1.512 0-2.34.684-2.34 2.628v1.17h-1.314v1.548h1.314v7.65h1.908v-7.65h1.692v-1.548h-1.692v-1.008c0-1.044.468-1.17 1.692-1.116Z" fill="#F3F3F3"/><defs><clipPath id="clip0_4313_360"><path fill="#fff" transform="translate(0 2)" d="M0 0h24v24H0z"/></clipPath></defs></svg>