<svg xmlns="http://www.w3.org/2000/svg" width="95" height="86" fill="none"><path fill="#FDD805" d="M92.711 20.728a45.126 45.126 0 0 0-6.347-2.69v53.055c-4.923-1.808-9.975-2.734-15.114-2.734-8.205 0-16.323 2.382-23.75 6.968V21.963c-6.995-4.102-15.07-6.527-23.75-6.527-7.73 0-15.027 1.94-21.461 5.292C.864 21.434 0 22.978 0 24.61v53.276a4.31 4.31 0 0 0 4.318 4.366c.691 0 1.382-.176 2.073-.529 5.225-2.778 11.098-4.542 17.359-4.542 8.939 0 17.186 3.616 23.75 8.82 6.564-5.204 14.811-8.82 23.75-8.82 6.261 0 12.134 1.764 17.36 4.586.69.353 1.38.53 2.072.53A4.337 4.337 0 0 0 95 77.928V24.61c0-1.632-.864-3.175-2.289-3.88ZM38.864 71.093c-4.923-1.808-9.975-2.734-15.114-2.734-5.139 0-10.19.926-15.114 2.734V27.388a37.749 37.749 0 0 1 15.114-3.132c5.182 0 10.32 1.103 15.114 3.176v43.661Z"/><path fill="#0034C2" d="m77.727 0-21.59 22.051V63.95l21.59-19.846V0Z"/></svg>