<?xml version="1.0" standalone="no"?>
<!DOCTYPE svg PUBLIC "-//W3C//DTD SVG 20010904//EN"
 "http://www.w3.org/TR/2001/REC-SVG-20010904/DTD/svg10.dtd">
<svg version="1.0" xmlns="http://www.w3.org/2000/svg"
 width="512.000000pt" height="512.000000pt" viewBox="0 0 512.000000 512.000000"
 preserveAspectRatio="xMidYMid meet">
<metadata>
Created by potrace 1.14, written by Peter Selinger 2001-2017
</metadata>
<g transform="translate(0.000000,512.000000) scale(0.100000,-0.100000)"
fill="#000000" stroke="none">
<path d="M10 5115 c0 -3 89 -93 198 -201 108 -107 267 -264 352 -348 l155
-154 -1 -1845 c0 -1300 3 -1847 10 -1850 6 -2 838 -3 1849 -3 l1838 1 62 -61
c34 -34 194 -195 355 -358 l292 -296 0 2560 0 2560 -2555 0 c-1405 0 -2555 -2
-2555 -5z"/>
</g>
</svg>
